<svg width="80" height="71" viewBox="0 0 80 71" fill="none" xmlns="http://www.w3.org/2000/svg">
<path d="M26.7581 57.1691C26.7581 57.4627 26.3871 57.6976 25.9194 57.6976C25.3871 57.7417 25.0161 57.5068 25.0161 57.1691C25.0161 56.8755 25.3871 56.6406 25.8548 56.6406C26.3387 56.5965 26.7581 56.8314 26.7581 57.1691ZM21.7419 56.5084C21.629 56.8021 21.9516 57.1397 22.4355 57.2278C22.8548 57.3746 23.3387 57.2278 23.4355 56.9342C23.5323 56.6406 23.2258 56.3029 22.7419 56.1708C22.3226 56.068 21.8548 56.2148 21.7419 56.5084ZM28.871 56.2589C28.4032 56.3616 28.0806 56.6406 28.129 56.9782C28.1774 57.2719 28.5968 57.4627 29.0806 57.36C29.5484 57.2572 29.871 56.9782 29.8226 56.6846C29.7742 56.4057 29.3387 56.2148 28.871 56.2589ZM39.4839 0C17.1129 0 0 15.4594 0 35.8224C0 52.104 11.2581 66.0366 27.3387 70.9402C29.4032 71.2779 30.129 70.118 30.129 69.1637C30.129 68.2535 30.0806 63.2325 30.0806 60.1494C30.0806 60.1494 18.7903 62.3516 16.4194 55.7744C16.4194 55.7744 14.5806 51.5021 11.9355 50.401C11.9355 50.401 8.24193 48.096 12.1935 48.1401C12.1935 48.1401 16.2097 48.4337 18.4194 51.9279C21.9516 57.5949 27.871 55.9652 30.1774 54.9963C30.5484 52.6472 31.5968 51.0176 32.7581 50.0486C23.7419 49.1384 14.6452 47.9492 14.6452 33.8258C14.6452 29.7884 15.871 27.7624 18.4516 25.1785C18.0323 24.2242 16.6613 20.2896 18.871 15.2099C22.2419 14.2556 30 19.1738 30 19.1738C33.2258 18.3517 36.6935 17.9259 40.129 17.9259C43.5645 17.9259 47.0323 18.3517 50.2581 19.1738C50.2581 19.1738 58.0161 14.2409 61.3871 15.2099C63.5968 20.3043 62.2258 24.2242 61.8065 25.1785C64.3871 27.7771 65.9677 29.8031 65.9677 33.8258C65.9677 47.9933 56.4677 49.1237 47.4516 50.0486C48.9355 51.2085 50.1935 53.4107 50.1935 56.8608C50.1935 61.8084 50.1452 67.9305 50.1452 69.1344C50.1452 70.0887 50.8871 71.2485 52.9355 70.9108C69.0645 66.0366 80 52.104 80 35.8224C80 15.4594 61.8548 0 39.4839 0ZM15.6774 50.6359C15.4677 50.7827 15.5161 51.1204 15.7903 51.3993C16.0484 51.6342 16.4194 51.737 16.629 51.5461C16.8387 51.3993 16.7903 51.0617 16.5161 50.7827C16.2581 50.5478 15.8871 50.445 15.6774 50.6359ZM13.9355 49.4467C13.8226 49.6376 13.9839 49.8725 14.3065 50.0193C14.5645 50.1661 14.8871 50.1221 15 49.9165C15.1129 49.7257 14.9516 49.4908 14.629 49.3439C14.3065 49.2559 14.0484 49.2999 13.9355 49.4467ZM19.1613 54.6733C18.9032 54.8641 19 55.3046 19.371 55.5835C19.7419 55.9212 20.2097 55.9652 20.4194 55.7303C20.629 55.5395 20.5323 55.099 20.2097 54.8201C19.8548 54.4824 19.371 54.4384 19.1613 54.6733ZM17.3226 52.5151C17.0645 52.6619 17.0645 53.0436 17.3226 53.3813C17.5806 53.719 18.0161 53.8658 18.2258 53.719C18.4839 53.5281 18.4839 53.1464 18.2258 52.8087C18 52.4711 17.5806 52.3243 17.3226 52.5151Z" fill="black"/>
</svg>
