<svg width="71" height="58" viewBox="0 0 71 58" fill="none" xmlns="http://www.w3.org/2000/svg">
<path d="M65.9286 0H5.05558C2.26629 0 0 1.87723 0 4.1817V53.8183C0 56.1228 2.26629 58 5.05558 58H65.9286C68.7179 58 71 56.1228 71 53.8183V4.1817C71 1.87723 68.7179 0 65.9286 0ZM21.4585 49.7143H10.9353V22.0348H21.4743V49.7143H21.4585ZM16.1969 18.2545C12.8212 18.2545 10.0953 16.0147 10.0953 13.2701C10.0953 10.5254 12.8212 8.28571 16.1969 8.28571C19.5567 8.28571 22.2984 10.5254 22.2984 13.2701C22.2984 16.0277 19.5725 18.2545 16.1969 18.2545V18.2545ZM60.9047 49.7143H50.3815V36.25C50.3815 33.0393 50.3022 28.9094 44.9138 28.9094C39.4304 28.9094 38.5904 32.4049 38.5904 36.017V49.7143H28.0672V22.0348H38.1625V25.8152H38.3051C39.7156 23.6402 43.1547 21.3487 48.2737 21.3487C58.9237 21.3487 60.9047 27.0839 60.9047 34.5411V49.7143V49.7143Z" fill="black"/>
</svg>
