<svg width="102" height="47" viewBox="0 0 102 47" fill="none" xmlns="http://www.w3.org/2000/svg">
<path d="M18.608 46.448C13.36 46.448 9.05067 45.2107 5.68 42.736C2.30933 40.2187 0.496 36.6347 0.24 31.984H13.616C13.744 33.5627 14.2133 34.7147 15.024 35.44C15.8347 36.1653 16.88 36.528 18.16 36.528C19.312 36.528 20.2507 36.2507 20.976 35.696C21.744 35.0987 22.128 34.288 22.128 33.264C22.128 31.9413 21.5093 30.9173 20.272 30.192C19.0347 29.4667 17.0293 28.656 14.256 27.76C11.312 26.7787 8.92267 25.84 7.088 24.944C5.296 24.0053 3.71733 22.6613 2.352 20.912C1.02933 19.12 0.368 16.7947 0.368 13.936C0.368 11.0347 1.09333 8.56 2.544 6.512C3.99467 4.42133 6 2.84267 8.56 1.776C11.12 0.709332 14.0213 0.175999 17.264 0.175999C22.512 0.175999 26.6933 1.41333 29.808 3.888C32.9653 6.32 34.6507 9.75467 34.864 14.192H21.232C21.1893 12.8267 20.7627 11.8027 19.952 11.12C19.184 10.4373 18.1813 10.096 16.944 10.096C16.0053 10.096 15.2373 10.3733 14.64 10.928C14.0427 11.4827 13.744 12.272 13.744 13.296C13.744 14.1493 14.064 14.896 14.704 15.536C15.3867 16.1333 16.2187 16.6667 17.2 17.136C18.1813 17.5627 19.632 18.1173 21.552 18.8C24.4107 19.7813 26.7573 20.7627 28.592 21.744C30.4693 22.6827 32.0693 24.0267 33.392 25.776C34.7573 27.4827 35.44 29.6587 35.44 32.304C35.44 34.992 34.7573 37.4027 33.392 39.536C32.0693 41.6693 30.128 43.3547 27.568 44.592C25.0507 45.8293 22.064 46.448 18.608 46.448ZM67.9595 46L53.8155 26.224V46H41.2715V0.879997H53.8155V20.336L67.8315 0.879997H82.2955L65.7195 22.768L83.1275 46H67.9595ZM93.789 46.512C91.5703 46.512 89.7783 45.9147 88.413 44.72C87.0903 43.4827 86.429 41.9253 86.429 40.048C86.429 38.1707 87.0903 36.6133 88.413 35.376C89.7783 34.1387 91.5703 33.52 93.789 33.52C95.965 33.52 97.7143 34.1387 99.037 35.376C100.402 36.6133 101.085 38.1707 101.085 40.048C101.085 41.8827 100.402 43.4187 99.037 44.656C97.7143 45.8933 95.965 46.512 93.789 46.512Z" fill="black"/>
</svg>
