<svg xmlns="http://www.w3.org/2000/svg" xmlns:xlink="http://www.w3.org/1999/xlink" version="1.1" x="0px" y="0px" viewBox="0 0 100 125" style="enable-background:new 0 0 100 100;" xml:space="preserve"><g><path d="M8.4,47c0.5,0,1.2,2.3,1.5,3.3c0.7,2.3,1.4,4.7,3.4,4.7s2.7-2.4,3.4-4.7c0.3-1,1-3.3,1.5-3.3c0.5,0,1.2,2.3,1.5,3.3   c0.7,2.3,1.4,4.7,3.4,4.7s2.7-2.4,3.4-4.7c0.3-1,1-3.3,1.5-3.3c0.5,0,1.2,2.3,1.5,3.3c0.7,2.3,1.4,4.7,3.4,4.7c2,0,2.7-2.4,3.4-4.7   c0.3-1,1-3.3,1.5-3.3c0.5,0,1.2,2.3,1.5,3.3c0.7,2.3,1.4,4.7,3.4,4.7c2,0,2.7-2.4,3.4-4.7c0.3-1,1-3.3,1.5-3.3   c0.5,0,1.2,2.3,1.5,3.3c0.7,2.3,1.4,4.7,3.4,4.7c2,0,2.7-2.4,3.4-4.7c0.3-1,1-3.3,1.5-3.3s1.2,2.3,1.5,3.3c0.7,2.3,1.4,4.7,3.4,4.7   s2.7-2.4,3.4-4.7c0.3-1,1-3.3,1.5-3.3c0.5,0,1.2,2.3,1.5,3.3c0.7,2.3,1.4,4.7,3.4,4.7c2,0,2.7-2.4,3.4-4.7c0.3-1,1-3.3,1.5-3.3   c0.5,0,1.2,2.3,1.5,3.3c0.7,2.3,1.4,4.7,3.4,4.7c2,0,2.7-2.4,3.4-4.7c0.3-1,1-3.3,1.5-3.3s1.2,2.3,1.5,3.3c0.7,2.3,1.4,4.7,3.4,4.7   c0.6,0,1-0.4,1-1s-0.4-1-1-1c-0.5,0-1.2-2.3-1.5-3.3c-0.7-2.3-1.4-4.7-3.4-4.7s-2.7,2.4-3.4,4.7c-0.3,1-1,3.3-1.5,3.3   c-0.5,0-1.2-2.3-1.5-3.3C79.7,47.4,79,45,77,45c-2,0-2.7,2.4-3.4,4.7c-0.3,1-1,3.3-1.5,3.3c-0.5,0-1.2-2.3-1.5-3.3   c-0.7-2.3-1.4-4.7-3.4-4.7c-2,0-2.7,2.4-3.4,4.7c-0.3,1-1,3.3-1.5,3.3s-1.2-2.3-1.5-3.3c-0.7-2.3-1.4-4.7-3.4-4.7s-2.7,2.4-3.4,4.7   c-0.3,1-1,3.3-1.5,3.3c-0.5,0-1.2-2.3-1.5-3.3c-0.7-2.3-1.4-4.7-3.4-4.7c-2,0-2.7,2.4-3.4,4.7c-0.3,1-1,3.3-1.5,3.3   c-0.5,0-1.2-2.3-1.5-3.3c-0.7-2.3-1.4-4.7-3.4-4.7c-2,0-2.7,2.4-3.4,4.7c-0.3,1-1,3.3-1.5,3.3c-0.5,0-1.2-2.3-1.5-3.3   C30.7,47.4,30,45,28,45c-2,0-2.7,2.4-3.4,4.7c-0.3,1-1,3.3-1.5,3.3s-1.2-2.3-1.5-3.3c-0.7-2.3-1.4-4.7-3.4-4.7   c-2,0-2.7,2.4-3.4,4.7c-0.3,1-1,3.3-1.5,3.3c-0.5,0-1.2-2.3-1.5-3.3c-0.7-2.3-1.4-4.7-3.4-4.7c-0.6,0-1,0.4-1,1S7.8,47,8.4,47z"/></g><text x="0" y="115" fill="#000000" font-size="5px" font-weight="bold" font-family="'Helvetica Neue', Helvetica, Arial-Unicode, Arial, Sans-serif">Created by Made by Made</text><text x="0" y="120" fill="#000000" font-size="5px" font-weight="bold" font-family="'Helvetica Neue', Helvetica, Arial-Unicode, Arial, Sans-serif">from the Noun Project</text></svg>